<svg viewBox="0 0 900 170" xmlns="http://www.w3.org/2000/svg"
            xmlns:xlink="http://www.w3.org/1999/xlink" version="1.1">
            <path
                d="M0 169L11.5 162.8C23 156.7 46 144.3 69 141.5C92 138.7 115 145.3 138.2 150.2C161.3 155 184.7 158 207.8 155.5C231 153 254 145 277 146.2C300 147.3 323 157.7 346 159C369 160.3 392 152.7 415.2 152.5C438.3 152.3 461.7 159.7 484.8 156.7C508 153.7 531 140.3 554 137C577 133.7 600 140.3 623 145.3C646 150.3 669 153.7 692.2 150C715.3 146.3 738.7 135.7 761.8 137C785 138.3 808 151.7 831 151.7C854 151.7 877 138.3 888.5 131.7L900 125L900 0L888.5 0C877 0 854 0 831 0C808 0 785 0 761.8 0C738.7 0 715.3 0 692.2 0C669 0 646 0 623 0C600 0 577 0 554 0C531 0 508 0 484.8 0C461.7 0 438.3 0 415.2 0C392 0 369 0 346 0C323 0 300 0 277 0C254 0 231 0 207.8 0C184.7 0 161.3 0 138.2 0C115 0 92 0 69 0C46 0 23 0 11.5 0L0 0Z"
                fill="#434C5E" stroke-linecap="round" stroke-linejoin="miter"></path>
        </svg>