<svg id="visual" viewBox="0 402 900 600" xmlns="http://www.w3.org/2000/svg" xmlns:xlink="http://www.w3.org/1999/xlink" version="1.1">
    <path d="M0 430L8.3 427.2C16.7 424.3 33.3 418.7 50 419.7C66.7 420.7 83.3 428.3 100 428C116.7 427.7 133.3 419.3 150 422.5C166.7 425.7 183.3 440.3 200 445.5C216.7 450.7 233.3 446.3 250 440.7C266.7 435 283.3 428 300 432.7C316.7 437.3 333.3 453.7 350 454.5C366.7 455.3 383.3 440.7 400 435.5C416.7 430.3 433.3 434.7 450 443.2C466.7 451.7 483.3 464.3 500 467.5C516.7 470.7 533.3 464.3 550 462.2C566.7 460 583.3 462 600 466.2C616.7 470.3 633.3 476.7 650 479.7C666.7 482.7 683.3 482.3 700 468.7C716.7 455 733.3 428 750 416.8C766.7 405.7 783.3 410.3 800 412.8C816.7 415.3 833.3 415.7 850 413.7C866.7 411.7 883.3 407.3 891.7 405.2L900 403L900 601L891.7 601C883.3 601 866.7 601 850 601C833.3 601 816.7 601 800 601C783.3 601 766.7 601 750 601C733.3 601 716.7 601 700 601C683.3 601 666.7 601 650 601C633.3 601 616.7 601 600 601C583.3 601 566.7 601 550 601C533.3 601 516.7 601 500 601C483.3 601 466.7 601 450 601C433.3 601 416.7 601 400 601C383.3 601 366.7 601 350 601C333.3 601 316.7 601 300 601C283.3 601 266.7 601 250 601C233.3 601 216.7 601 200 601C183.3 601 166.7 601 150 601C133.3 601 116.7 601 100 601C83.3 601 66.7 601 50 601C33.3 601 16.7 601 8.3 601L0 601Z" fill="#434c5e"></path>
    <path d="M0 508L8.3 501.8C16.7 495.7 33.3 483.3 50 484.3C66.7 485.3 83.3 499.7 100 499.5C116.7 499.3 133.3 484.7 150 476.8C166.7 469 183.3 468 200 469.8C216.7 471.7 233.3 476.3 250 483C266.7 489.7 283.3 498.3 300 493C316.7 487.7 333.3 468.3 350 466.8C366.7 465.3 383.3 481.7 400 484.7C416.7 487.7 433.3 477.3 450 474.8C466.7 472.3 483.3 477.7 500 475.7C516.7 473.7 533.3 464.3 550 464C566.7 463.7 583.3 472.3 600 473.3C616.7 474.3 633.3 467.7 650 468.8C666.7 470 683.3 479 700 482.7C716.7 486.3 733.3 484.7 750 481C766.7 477.3 783.3 471.7 800 473C816.7 474.3 833.3 482.7 850 483C866.7 483.3 883.3 475.7 891.7 471.8L900 468L900 601L891.7 601C883.3 601 866.7 601 850 601C833.3 601 816.7 601 800 601C783.3 601 766.7 601 750 601C733.3 601 716.7 601 700 601C683.3 601 666.7 601 650 601C633.3 601 616.7 601 600 601C583.3 601 566.7 601 550 601C533.3 601 516.7 601 500 601C483.3 601 466.7 601 450 601C433.3 601 416.7 601 400 601C383.3 601 366.7 601 350 601C333.3 601 316.7 601 300 601C283.3 601 266.7 601 250 601C233.3 601 216.7 601 200 601C183.3 601 166.7 601 150 601C133.3 601 116.7 601 100 601C83.3 601 66.7 601 50 601C33.3 601 16.7 601 8.3 601L0 601Z" fill="#3c4454"></path>
    <path d="M0 538L8.3 532.7C16.7 527.3 33.3 516.7 50 516.8C66.7 517 83.3 528 100 534.5C116.7 541 133.3 543 150 538.2C166.7 533.3 183.3 521.7 200 519C216.7 516.3 233.3 522.7 250 518.7C266.7 514.7 283.3 500.3 300 495C316.7 489.7 333.3 493.3 350 497.3C366.7 501.3 383.3 505.7 400 513.7C416.7 521.7 433.3 533.3 450 532.8C466.7 532.3 483.3 519.7 500 513.2C516.7 506.7 533.3 506.3 550 504.7C566.7 503 583.3 500 600 499.3C616.7 498.7 633.3 500.3 650 502.5C666.7 504.7 683.3 507.3 700 504.8C716.7 502.3 733.3 494.7 750 491.8C766.7 489 783.3 491 800 496C816.7 501 833.3 509 850 513.8C866.7 518.7 883.3 520.3 891.7 521.2L900 522L900 601L891.7 601C883.3 601 866.7 601 850 601C833.3 601 816.7 601 800 601C783.3 601 766.7 601 750 601C733.3 601 716.7 601 700 601C683.3 601 666.7 601 650 601C633.3 601 616.7 601 600 601C583.3 601 566.7 601 550 601C533.3 601 516.7 601 500 601C483.3 601 466.7 601 450 601C433.3 601 416.7 601 400 601C383.3 601 366.7 601 350 601C333.3 601 316.7 601 300 601C283.3 601 266.7 601 250 601C233.3 601 216.7 601 200 601C183.3 601 166.7 601 150 601C133.3 601 116.7 601 100 601C83.3 601 66.7 601 50 601C33.3 601 16.7 601 8.3 601L0 601Z" fill="#353c4a"></path>
    <path d="M0 555L8.3 554.2C16.7 553.3 33.3 551.7 50 554.8C66.7 558 83.3 566 100 565.5C116.7 565 133.3 556 150 550.8C166.7 545.7 183.3 544.3 200 547.5C216.7 550.7 233.3 558.3 250 558.2C266.7 558 283.3 550 300 548C316.7 546 333.3 550 350 554.8C366.7 559.7 383.3 565.3 400 564.5C416.7 563.7 433.3 556.3 450 551.2C466.7 546 483.3 543 500 543.3C516.7 543.7 533.3 547.3 550 547.8C566.7 548.3 583.3 545.7 600 549.7C616.7 553.7 633.3 564.3 650 565.3C666.7 566.3 683.3 557.7 700 551.3C716.7 545 733.3 541 750 537.8C766.7 534.7 783.3 532.3 800 535.8C816.7 539.3 833.3 548.7 850 551.5C866.7 554.3 883.3 550.7 891.7 548.8L900 547L900 601L891.7 601C883.3 601 866.7 601 850 601C833.3 601 816.7 601 800 601C783.3 601 766.7 601 750 601C733.3 601 716.7 601 700 601C683.3 601 666.7 601 650 601C633.3 601 616.7 601 600 601C583.3 601 566.7 601 550 601C533.3 601 516.7 601 500 601C483.3 601 466.7 601 450 601C433.3 601 416.7 601 400 601C383.3 601 366.7 601 350 601C333.3 601 316.7 601 300 601C283.3 601 266.7 601 250 601C233.3 601 216.7 601 200 601C183.3 601 166.7 601 150 601C133.3 601 116.7 601 100 601C83.3 601 66.7 601 50 601C33.3 601 16.7 601 8.3 601L0 601Z" fill="#2e3440"></path>
</svg>